<svg width="243" height="196" viewBox="0 0 243 196" fill="none" xmlns="http://www.w3.org/2000/svg">
<g clip-path="url(#clip0_17_184)">
<path d="M100.967 40.4739C121.711 38.67 129.139 58.1347 141.189 70.4958C145.286 74.6955 150.7 72.058 149.357 66.5377C144.247 59.4202 138.275 52.8561 132.608 46.1484C143.301 40.593 154.313 37.7033 165.451 44.1623C183.27 54.4918 182.464 77.9426 167.499 90.4648C156.301 100.959 146.464 113.761 135.42 124.277C131.405 128.102 126.544 129.482 121.718 126.021C109.496 112.444 95.2013 99.684 83.3194 85.9113C68.5547 68.7935 78.3639 42.439 100.963 40.4774L100.967 40.4739Z" fill="#E94158"/>
<path d="M78.8654 0.182027C108.612 -3.23663 108.191 42.4739 79.5142 39.6227C56.2905 37.3179 56.2519 2.78105 78.8654 0.182027Z" fill="#E94258"/>
<path d="M166.542 13.1457C184.172 11.1141 186.851 37.7909 169.565 39.6298C152.194 41.4757 149.15 15.1493 166.542 13.1457Z" fill="#E94258"/>
</g>
<path d="M37.418 149.016C37.418 149.211 37.3919 149.361 37.3398 149.465C37.2878 149.556 37.2227 149.66 37.1445 149.777C37.0664 149.895 36.9753 150.044 36.8711 150.227C36.7799 150.409 36.6953 150.676 36.6172 151.027C36.5391 151.392 36.4609 151.711 36.3828 151.984C36.3177 152.258 36.2591 152.518 36.207 152.766C36.1549 153.013 36.1094 153.267 36.0703 153.527C36.0443 153.775 36.0312 154.068 36.0312 154.406C36.0312 154.992 36.0182 155.572 35.9922 156.145C35.9661 156.717 35.9271 157.316 35.875 157.941C35.8229 158.553 35.7578 159.198 35.6797 159.875C35.6146 160.539 35.5365 161.262 35.4453 162.043C35.3151 163.15 35.1849 164.322 35.0547 165.559C34.9245 166.796 34.8594 168.072 34.8594 169.387C34.8594 169.738 34.8594 170.148 34.8594 170.617C34.8594 171.086 34.8659 171.587 34.8789 172.121C34.9049 172.655 34.931 173.202 34.957 173.762C34.9961 174.309 35.0482 174.842 35.1133 175.363C35.1784 175.428 35.2305 175.474 35.2695 175.5C35.3216 175.513 35.3932 175.552 35.4844 175.617C35.9531 175.917 36.2917 176.177 36.5 176.398C36.7083 176.62 36.8125 176.919 36.8125 177.297C36.8125 177.57 36.7279 177.857 36.5586 178.156C36.3893 178.469 36.1615 178.755 35.875 179.016C35.6016 179.276 35.2826 179.491 34.918 179.66C34.5664 179.829 34.2018 179.914 33.8242 179.914C33.069 179.914 32.444 179.68 31.9492 179.211C31.4544 178.742 31.0638 178.143 30.7773 177.414C30.5039 176.672 30.3086 175.852 30.1914 174.953C30.0872 174.042 30.0352 173.143 30.0352 172.258V171.574C30.0352 171.21 30.0677 170.656 30.1328 169.914C30.2109 169.172 30.3021 168.326 30.4062 167.375C30.5234 166.424 30.6471 165.415 30.7773 164.348C30.9206 163.28 31.0638 162.238 31.207 161.223C31.3633 160.194 31.5065 159.237 31.6367 158.352C31.7799 157.466 31.9036 156.737 32.0078 156.164C31.8516 156.359 31.6302 156.646 31.3438 157.023C31.0703 157.388 30.7578 157.798 30.4062 158.254C30.0677 158.71 29.7031 159.191 29.3125 159.699C28.9349 160.207 28.5638 160.708 28.1992 161.203C27.8477 161.685 27.5091 162.141 27.1836 162.57C26.8711 163 26.6042 163.365 26.3828 163.664C25.888 164.341 25.4128 165.012 24.957 165.676C24.5013 166.34 24.026 167.023 23.5312 167.727C23.4922 167.766 23.4271 167.85 23.3359 167.98C23.2578 168.111 23.1667 168.26 23.0625 168.43C22.9583 168.586 22.8542 168.742 22.75 168.898C22.6458 169.055 22.5547 169.172 22.4766 169.25C21.5651 170.474 20.5625 171.242 19.4688 171.555C18.7656 171.333 18.1992 171.092 17.7695 170.832C17.3529 170.572 17.0078 170.292 16.7344 169.992C16.4609 169.68 16.2266 169.341 16.0312 168.977C15.849 168.612 15.6341 168.228 15.3867 167.824C15.1263 167.382 14.8919 166.978 14.6836 166.613C14.4753 166.249 14.293 165.923 14.1367 165.637C13.7982 165.025 13.4792 164.38 13.1797 163.703C12.8802 163.026 12.6003 162.336 12.3398 161.633C12.1576 161.047 11.9948 160.546 11.8516 160.129C11.7214 159.712 11.5977 159.322 11.4805 158.957C11.3633 158.592 11.2461 158.221 11.1289 157.844C11.0117 157.466 10.8815 157.023 10.7383 156.516C10.7122 156.607 10.6602 156.828 10.582 157.18C10.5039 157.531 10.4062 157.967 10.2891 158.488C10.1719 159.009 10.0417 159.589 9.89844 160.227C9.75521 160.865 9.61198 161.516 9.46875 162.18C9.32552 162.844 9.18229 163.495 9.03906 164.133C8.90885 164.758 8.78516 165.324 8.66797 165.832C8.5638 166.34 8.47266 166.763 8.39453 167.102C8.31641 167.427 8.27083 167.622 8.25781 167.688C7.9974 168.729 7.86719 169.719 7.86719 170.656C7.86719 170.852 7.86068 171.158 7.84766 171.574C7.83464 171.978 7.82161 172.414 7.80859 172.883C7.80859 173.339 7.80208 173.781 7.78906 174.211C7.77604 174.641 7.76953 174.973 7.76953 175.207C7.76953 175.402 7.71094 175.643 7.59375 175.93C7.47656 176.216 7.3138 176.49 7.10547 176.75C6.89714 177.01 6.65625 177.238 6.38281 177.434C6.10938 177.616 5.82292 177.707 5.52344 177.707C5.09375 177.707 4.72266 177.688 4.41016 177.648C4.09766 177.609 3.82422 177.531 3.58984 177.414C3.36849 177.297 3.17318 177.128 3.00391 176.906C2.83464 176.685 2.67839 176.398 2.53516 176.047C2.48307 175.93 2.44401 175.806 2.41797 175.676C2.39193 175.533 2.36589 175.357 2.33984 175.148C2.32682 174.94 2.3138 174.686 2.30078 174.387C2.30078 174.074 2.30078 173.684 2.30078 173.215C2.30078 173.072 2.34635 172.785 2.4375 172.355C2.54167 171.913 2.66536 171.385 2.80859 170.773C2.96484 170.161 3.13411 169.504 3.31641 168.801C3.4987 168.085 3.68099 167.388 3.86328 166.711C4.05859 166.021 4.23438 165.376 4.39062 164.777C4.5599 164.165 4.69661 163.671 4.80078 163.293C4.98307 162.642 5.17188 161.965 5.36719 161.262C5.5625 160.559 5.7513 159.849 5.93359 159.133C6.12891 158.417 6.31771 157.707 6.5 157.004C6.69531 156.288 6.87109 155.611 7.02734 154.973C7.10547 154.322 7.18359 153.846 7.26172 153.547C7.33984 153.195 7.44401 152.824 7.57422 152.434C7.70443 152.03 7.86068 151.665 8.04297 151.34C8.23828 151.001 8.46615 150.721 8.72656 150.5C9 150.279 9.31901 150.168 9.68359 150.168C10.7383 150.168 11.5781 150.285 12.2031 150.52C12.8411 150.754 13.349 151.118 13.7266 151.613C14.1172 152.095 14.4232 152.72 14.6445 153.488C14.8659 154.257 15.0938 155.181 15.3281 156.262C15.3932 156.561 15.4714 156.828 15.5625 157.062C15.6536 157.284 15.7513 157.531 15.8555 157.805C16.2982 159.159 16.832 160.507 17.457 161.848C18.0951 163.176 18.8307 164.491 19.6641 165.793C20.0026 165.52 20.3086 165.174 20.582 164.758C20.8685 164.328 21.181 163.807 21.5195 163.195C21.819 162.661 22.1185 162.16 22.418 161.691C22.7305 161.21 23.082 160.754 23.4727 160.324C23.6159 160.168 23.8438 159.901 24.1562 159.523C24.4688 159.133 24.8268 158.684 25.2305 158.176C25.6471 157.655 26.0833 157.108 26.5391 156.535C26.9948 155.962 27.4245 155.422 27.8281 154.914C28.2318 154.393 28.5898 153.938 28.9023 153.547C29.2148 153.143 29.4362 152.857 29.5664 152.688C29.7096 152.518 29.8203 152.388 29.8984 152.297C29.9766 152.193 30.0742 152.076 30.1914 151.945C30.3346 151.737 30.569 151.418 30.8945 150.988C31.2201 150.559 31.5586 150.103 31.9102 149.621C32.2747 149.139 32.6198 148.684 32.9453 148.254C33.2839 147.811 33.5312 147.479 33.6875 147.258C33.8698 146.984 34.2148 146.848 34.7227 146.848C34.9961 146.848 35.2891 146.932 35.6016 147.102C35.9141 147.258 36.2005 147.453 36.4609 147.688C36.7344 147.922 36.9557 148.169 37.125 148.43C37.3073 148.69 37.3984 148.918 37.3984 149.113L37.418 149.016ZM52.3008 161.203C52.3008 160.63 52.2096 160.227 52.0273 159.992C51.8581 159.758 51.6628 159.641 51.4414 159.641C51.2461 159.641 51.0182 159.758 50.7578 159.992C50.4974 160.227 50.224 160.546 49.9375 160.949C49.6641 161.34 49.3841 161.802 49.0977 162.336C48.8242 162.857 48.5638 163.41 48.3164 163.996C48.082 164.582 47.8802 165.188 47.7109 165.812C47.5547 166.424 47.444 167.017 47.3789 167.59C47.7565 167.277 48.0951 166.997 48.3945 166.75C48.707 166.49 49 166.216 49.2734 165.93C49.5469 165.656 49.8529 165.324 50.1914 164.934C50.543 164.53 50.875 164.113 51.1875 163.684C51.5 163.254 51.7604 162.824 51.9688 162.395C52.1901 161.965 52.3008 161.568 52.3008 161.203ZM67.457 163.312C67.457 163.417 67.418 163.579 67.3398 163.801C67.2617 164.022 67.1315 164.283 66.9492 164.582C66.4414 165.389 65.8034 166.268 65.0352 167.219C64.2799 168.169 63.4401 169.12 62.5156 170.07C61.6042 171.008 60.6211 171.919 59.5664 172.805C58.5247 173.677 57.4635 174.452 56.3828 175.129C55.3151 175.806 54.2474 176.353 53.1797 176.77C52.112 177.173 51.0964 177.375 50.1328 177.375C48.9089 177.375 47.8411 177.206 46.9297 176.867C46.0182 176.529 45.263 176.04 44.6641 175.402C44.0651 174.751 43.6159 173.964 43.3164 173.039C43.0169 172.102 42.8672 171.04 42.8672 169.855C42.8672 168.957 42.9323 168.007 43.0625 167.004C43.2057 166.001 43.4596 164.986 43.8242 163.957C44.1888 162.915 44.6771 161.874 45.2891 160.832C45.9141 159.777 46.7083 158.762 47.6719 157.785C48.4141 157.03 49.2148 156.457 50.0742 156.066C50.9336 155.676 51.7539 155.48 52.5352 155.48C52.6784 155.48 52.8607 155.513 53.082 155.578C53.3034 155.63 53.5247 155.708 53.7461 155.812C53.9674 155.917 54.1823 156.04 54.3906 156.184C54.599 156.327 54.7682 156.483 54.8984 156.652C55.3151 157.186 55.6276 157.694 55.8359 158.176C56.0443 158.645 56.1484 159.178 56.1484 159.777C56.1484 160.715 56.0182 161.561 55.7578 162.316C55.4974 163.072 55.1393 163.781 54.6836 164.445C54.2409 165.096 53.7135 165.728 53.1016 166.34C52.4896 166.952 51.832 167.59 51.1289 168.254C50.6992 168.658 50.1654 169.1 49.5273 169.582C48.8893 170.051 48.2057 170.565 47.4766 171.125C47.5807 171.529 47.7109 171.88 47.8672 172.18C48.0234 172.466 48.2188 172.707 48.4531 172.902C48.6875 173.098 48.9674 173.247 49.293 173.352C49.6315 173.443 50.0286 173.488 50.4844 173.488C51.0964 173.488 51.7474 173.384 52.4375 173.176C53.1406 172.967 53.8438 172.701 54.5469 172.375C55.1589 172.089 55.7643 171.73 56.3633 171.301C56.9622 170.858 57.5677 170.402 58.1797 169.934C58.5573 169.647 59.0391 169.237 59.625 168.703C60.224 168.156 60.8294 167.59 61.4414 167.004C61.8581 166.613 62.2747 166.236 62.6914 165.871C63.1081 165.493 63.5508 165.077 64.0195 164.621L65.0547 163.605C65.8099 162.993 66.4219 162.688 66.8906 162.688C67.138 162.688 67.2943 162.759 67.3594 162.902C67.4245 163.046 67.457 163.182 67.457 163.312ZM106.402 169.699C106.402 169.882 106.331 170.096 106.188 170.344C106.044 170.578 105.868 170.819 105.66 171.066C105.452 171.301 105.224 171.529 104.977 171.75C104.742 171.958 104.521 172.128 104.312 172.258C103.062 173.039 101.839 173.651 100.641 174.094C99.4557 174.536 98.2122 174.758 96.9102 174.758C96.0898 174.758 95.3607 174.589 94.7227 174.25C94.0977 173.898 93.5573 173.397 93.1016 172.746C92.6458 172.095 92.2552 171.301 91.9297 170.363C91.6172 169.413 91.3633 168.345 91.168 167.16C91.1159 166.822 91.0573 166.496 90.9922 166.184C90.9271 165.871 90.8685 165.598 90.8164 165.363C90.7643 165.116 90.7188 164.921 90.6797 164.777C90.6406 164.634 90.6146 164.562 90.6016 164.562C90.3021 164.562 89.8529 165.018 89.2539 165.93C88.668 166.828 87.9128 168.091 86.9883 169.719C86.4674 170.63 85.9792 171.451 85.5234 172.18C85.0677 172.896 84.6315 173.501 84.2148 173.996C83.7982 174.478 83.3945 174.849 83.0039 175.109C82.6133 175.37 82.2292 175.5 81.8516 175.5C81.2526 175.5 80.7643 175.402 80.3867 175.207C80.0091 175.012 79.7096 174.686 79.4883 174.23C79.2669 173.775 79.1107 173.169 79.0195 172.414C78.9284 171.659 78.8698 170.721 78.8438 169.602C78.8177 168.299 78.7135 167.29 78.5312 166.574C78.362 165.845 78.1667 165.48 77.9453 165.48C77.8542 165.48 77.6914 165.604 77.457 165.852C77.2227 166.086 76.9427 166.398 76.6172 166.789C76.3047 167.18 75.9661 167.622 75.6016 168.117C75.237 168.612 74.8789 169.113 74.5273 169.621C74.1758 170.129 73.8438 170.624 73.5312 171.105C73.2188 171.587 72.9648 172.01 72.7695 172.375C72.6133 172.661 72.4245 172.993 72.2031 173.371C71.9818 173.749 71.7539 174.133 71.5195 174.523C71.2852 174.914 71.0508 175.292 70.8164 175.656C70.582 176.021 70.3737 176.333 70.1914 176.594C69.957 176.932 69.6706 177.193 69.332 177.375C69.0065 177.544 68.6484 177.629 68.2578 177.629C67.6589 177.629 67.1641 177.492 66.7734 177.219C66.3958 176.945 66.0964 176.587 65.875 176.145C65.6667 175.702 65.5234 175.194 65.4453 174.621C65.3672 174.048 65.3281 173.469 65.3281 172.883C65.3281 172.375 65.3542 171.841 65.4062 171.281C65.4583 170.708 65.5234 170.129 65.6016 169.543C65.6927 168.957 65.7904 168.371 65.8945 167.785C65.9987 167.186 66.1029 166.607 66.207 166.047C66.3893 165.005 66.5456 164.055 66.6758 163.195C66.819 162.336 66.8906 161.516 66.8906 160.734C66.8906 160.279 67.0404 159.895 67.3398 159.582C67.6523 159.27 68.082 159.113 68.6289 159.113C70.3737 159.113 71.2461 160.155 71.2461 162.238C71.2461 162.577 71.207 162.987 71.1289 163.469C71.0508 163.938 70.9466 164.445 70.8164 164.992C70.6862 165.526 70.543 166.086 70.3867 166.672C70.2305 167.258 70.0807 167.837 69.9375 168.41C69.7943 168.97 69.6576 169.51 69.5273 170.031C69.4102 170.552 69.319 171.021 69.2539 171.438C69.2799 171.398 69.3516 171.275 69.4688 171.066C69.5859 170.858 69.7227 170.611 69.8789 170.324C70.0482 170.038 70.224 169.732 70.4062 169.406C70.5885 169.081 70.7578 168.775 70.9141 168.488C71.0833 168.189 71.2266 167.935 71.3438 167.727C71.474 167.518 71.5521 167.388 71.5781 167.336C72.2682 166.242 72.9193 165.266 73.5312 164.406C74.1432 163.547 74.7357 162.805 75.3086 162.18C75.9076 161.516 76.526 161.021 77.1641 160.695C77.8151 160.37 78.5117 160.207 79.2539 160.207C79.9049 160.207 80.4193 160.402 80.7969 160.793C81.1875 161.184 81.4935 161.672 81.7148 162.258C81.9362 162.844 82.0924 163.482 82.1836 164.172C82.2878 164.862 82.3724 165.5 82.4375 166.086C82.4766 166.424 82.5156 166.796 82.5547 167.199C82.5938 167.59 82.6263 167.967 82.6523 168.332C82.6914 168.697 82.7174 169.029 82.7305 169.328C82.7565 169.628 82.7695 169.855 82.7695 170.012C82.7695 170.077 82.7891 170.122 82.8281 170.148C82.8802 170.161 82.9258 170.168 82.9648 170.168C83.0299 170.168 83.1276 170.07 83.2578 169.875C83.388 169.667 83.5378 169.406 83.707 169.094C83.8763 168.768 84.0521 168.417 84.2344 168.039C84.4297 167.648 84.6185 167.271 84.8008 166.906C84.9831 166.529 85.1523 166.184 85.3086 165.871C85.4648 165.559 85.5885 165.324 85.6797 165.168C85.9922 164.66 86.3307 164.094 86.6953 163.469C87.0729 162.844 87.4896 162.258 87.9453 161.711C88.401 161.151 88.8958 160.682 89.4297 160.305C89.9766 159.927 90.5755 159.738 91.2266 159.738C91.9688 159.738 92.5417 159.875 92.9453 160.148C93.349 160.422 93.668 160.832 93.9023 161.379C94.1497 161.926 94.3581 162.609 94.5273 163.43C94.6966 164.237 94.9115 165.181 95.1719 166.262C95.5365 167.772 95.9271 168.944 96.3438 169.777C96.7734 170.611 97.2357 171.027 97.7305 171.027C98.5768 171.027 99.4948 170.91 100.484 170.676C101.487 170.441 102.62 169.966 103.883 169.25C103.935 169.224 104.026 169.178 104.156 169.113C104.299 169.048 104.449 168.99 104.605 168.938C104.762 168.872 104.911 168.82 105.055 168.781C105.198 168.729 105.302 168.703 105.367 168.703C105.471 168.703 105.582 168.729 105.699 168.781C105.816 168.833 105.927 168.905 106.031 168.996C106.135 169.087 106.22 169.191 106.285 169.309C106.363 169.426 106.402 169.556 106.402 169.699ZM115.133 160.852C115.133 160.643 115.094 160.474 115.016 160.344C114.938 160.201 114.846 160.09 114.742 160.012C114.651 159.934 114.553 159.882 114.449 159.855C114.358 159.816 114.293 159.797 114.254 159.797C113.668 159.797 113.128 160.025 112.633 160.48C112.138 160.923 111.695 161.496 111.305 162.199C110.914 162.902 110.569 163.677 110.27 164.523C109.983 165.37 109.742 166.19 109.547 166.984C110.328 166.385 111.057 165.832 111.734 165.324C112.411 164.816 112.997 164.322 113.492 163.84C114 163.358 114.397 162.876 114.684 162.395C114.983 161.913 115.133 161.398 115.133 160.852ZM124.605 168.332C124.605 168.814 124.417 169.361 124.039 169.973C123.661 170.585 123.154 171.223 122.516 171.887C121.812 172.603 121.038 173.273 120.191 173.898C119.358 174.51 118.486 175.044 117.574 175.5C116.676 175.943 115.758 176.294 114.82 176.555C113.883 176.802 112.971 176.926 112.086 176.926C110.992 176.926 110.016 176.757 109.156 176.418C108.31 176.066 107.587 175.559 106.988 174.895C106.402 174.217 105.953 173.378 105.641 172.375C105.328 171.372 105.172 170.22 105.172 168.918C105.172 168.137 105.243 167.342 105.387 166.535C105.543 165.728 105.764 164.927 106.051 164.133C106.337 163.326 106.695 162.551 107.125 161.809C107.555 161.053 108.043 160.344 108.59 159.68C108.941 159.263 109.339 158.846 109.781 158.43C110.237 158 110.738 157.616 111.285 157.277C111.832 156.939 112.431 156.665 113.082 156.457C113.746 156.236 114.462 156.125 115.23 156.125C115.855 156.125 116.409 156.242 116.891 156.477C117.385 156.698 117.802 156.984 118.141 157.336C118.479 157.688 118.74 158.085 118.922 158.527C119.104 158.97 119.195 159.406 119.195 159.836C119.195 160.852 118.974 161.802 118.531 162.688C118.102 163.56 117.496 164.4 116.715 165.207C115.934 166.001 114.99 166.783 113.883 167.551C112.789 168.319 111.578 169.107 110.25 169.914C110.185 169.94 110.081 169.999 109.938 170.09C109.807 170.181 109.742 170.24 109.742 170.266C109.755 170.526 109.82 170.806 109.938 171.105C110.055 171.405 110.237 171.685 110.484 171.945C110.732 172.206 111.044 172.427 111.422 172.609C111.812 172.779 112.275 172.863 112.809 172.863C113.629 172.863 114.456 172.753 115.289 172.531C116.122 172.297 116.943 171.965 117.75 171.535C118.557 171.105 119.345 170.585 120.113 169.973C120.882 169.361 121.611 168.671 122.301 167.902C122.561 167.603 122.815 167.388 123.062 167.258C123.323 167.128 123.564 167.062 123.785 167.062C124.007 167.062 124.195 167.154 124.352 167.336C124.521 167.518 124.605 167.85 124.605 168.332ZM160.191 149.016C160.191 149.211 160.165 149.361 160.113 149.465C160.061 149.556 159.996 149.66 159.918 149.777C159.84 149.895 159.749 150.044 159.645 150.227C159.553 150.409 159.469 150.676 159.391 151.027C159.312 151.392 159.234 151.711 159.156 151.984C159.091 152.258 159.033 152.518 158.98 152.766C158.928 153.013 158.883 153.267 158.844 153.527C158.818 153.775 158.805 154.068 158.805 154.406C158.805 154.992 158.792 155.572 158.766 156.145C158.74 156.717 158.701 157.316 158.648 157.941C158.596 158.553 158.531 159.198 158.453 159.875C158.388 160.539 158.31 161.262 158.219 162.043C158.089 163.15 157.958 164.322 157.828 165.559C157.698 166.796 157.633 168.072 157.633 169.387C157.633 169.738 157.633 170.148 157.633 170.617C157.633 171.086 157.639 171.587 157.652 172.121C157.678 172.655 157.704 173.202 157.73 173.762C157.77 174.309 157.822 174.842 157.887 175.363C157.952 175.428 158.004 175.474 158.043 175.5C158.095 175.513 158.167 175.552 158.258 175.617C158.727 175.917 159.065 176.177 159.273 176.398C159.482 176.62 159.586 176.919 159.586 177.297C159.586 177.57 159.501 177.857 159.332 178.156C159.163 178.469 158.935 178.755 158.648 179.016C158.375 179.276 158.056 179.491 157.691 179.66C157.34 179.829 156.975 179.914 156.598 179.914C155.842 179.914 155.217 179.68 154.723 179.211C154.228 178.742 153.837 178.143 153.551 177.414C153.277 176.672 153.082 175.852 152.965 174.953C152.861 174.042 152.809 173.143 152.809 172.258V171.574C152.809 171.21 152.841 170.656 152.906 169.914C152.984 169.172 153.076 168.326 153.18 167.375C153.297 166.424 153.421 165.415 153.551 164.348C153.694 163.28 153.837 162.238 153.98 161.223C154.137 160.194 154.28 159.237 154.41 158.352C154.553 157.466 154.677 156.737 154.781 156.164C154.625 156.359 154.404 156.646 154.117 157.023C153.844 157.388 153.531 157.798 153.18 158.254C152.841 158.71 152.477 159.191 152.086 159.699C151.708 160.207 151.337 160.708 150.973 161.203C150.621 161.685 150.283 162.141 149.957 162.57C149.645 163 149.378 163.365 149.156 163.664C148.661 164.341 148.186 165.012 147.73 165.676C147.275 166.34 146.799 167.023 146.305 167.727C146.266 167.766 146.201 167.85 146.109 167.98C146.031 168.111 145.94 168.26 145.836 168.43C145.732 168.586 145.628 168.742 145.523 168.898C145.419 169.055 145.328 169.172 145.25 169.25C144.339 170.474 143.336 171.242 142.242 171.555C141.539 171.333 140.973 171.092 140.543 170.832C140.126 170.572 139.781 170.292 139.508 169.992C139.234 169.68 139 169.341 138.805 168.977C138.622 168.612 138.408 168.228 138.16 167.824C137.9 167.382 137.665 166.978 137.457 166.613C137.249 166.249 137.066 165.923 136.91 165.637C136.572 165.025 136.253 164.38 135.953 163.703C135.654 163.026 135.374 162.336 135.113 161.633C134.931 161.047 134.768 160.546 134.625 160.129C134.495 159.712 134.371 159.322 134.254 158.957C134.137 158.592 134.02 158.221 133.902 157.844C133.785 157.466 133.655 157.023 133.512 156.516C133.486 156.607 133.434 156.828 133.355 157.18C133.277 157.531 133.18 157.967 133.062 158.488C132.945 159.009 132.815 159.589 132.672 160.227C132.529 160.865 132.385 161.516 132.242 162.18C132.099 162.844 131.956 163.495 131.812 164.133C131.682 164.758 131.559 165.324 131.441 165.832C131.337 166.34 131.246 166.763 131.168 167.102C131.09 167.427 131.044 167.622 131.031 167.688C130.771 168.729 130.641 169.719 130.641 170.656C130.641 170.852 130.634 171.158 130.621 171.574C130.608 171.978 130.595 172.414 130.582 172.883C130.582 173.339 130.576 173.781 130.562 174.211C130.549 174.641 130.543 174.973 130.543 175.207C130.543 175.402 130.484 175.643 130.367 175.93C130.25 176.216 130.087 176.49 129.879 176.75C129.671 177.01 129.43 177.238 129.156 177.434C128.883 177.616 128.596 177.707 128.297 177.707C127.867 177.707 127.496 177.688 127.184 177.648C126.871 177.609 126.598 177.531 126.363 177.414C126.142 177.297 125.947 177.128 125.777 176.906C125.608 176.685 125.452 176.398 125.309 176.047C125.257 175.93 125.217 175.806 125.191 175.676C125.165 175.533 125.139 175.357 125.113 175.148C125.1 174.94 125.087 174.686 125.074 174.387C125.074 174.074 125.074 173.684 125.074 173.215C125.074 173.072 125.12 172.785 125.211 172.355C125.315 171.913 125.439 171.385 125.582 170.773C125.738 170.161 125.908 169.504 126.09 168.801C126.272 168.085 126.454 167.388 126.637 166.711C126.832 166.021 127.008 165.376 127.164 164.777C127.333 164.165 127.47 163.671 127.574 163.293C127.757 162.642 127.945 161.965 128.141 161.262C128.336 160.559 128.525 159.849 128.707 159.133C128.902 158.417 129.091 157.707 129.273 157.004C129.469 156.288 129.645 155.611 129.801 154.973C129.879 154.322 129.957 153.846 130.035 153.547C130.113 153.195 130.217 152.824 130.348 152.434C130.478 152.03 130.634 151.665 130.816 151.34C131.012 151.001 131.24 150.721 131.5 150.5C131.773 150.279 132.092 150.168 132.457 150.168C133.512 150.168 134.352 150.285 134.977 150.52C135.615 150.754 136.122 151.118 136.5 151.613C136.891 152.095 137.197 152.72 137.418 153.488C137.639 154.257 137.867 155.181 138.102 156.262C138.167 156.561 138.245 156.828 138.336 157.062C138.427 157.284 138.525 157.531 138.629 157.805C139.072 159.159 139.605 160.507 140.23 161.848C140.868 163.176 141.604 164.491 142.438 165.793C142.776 165.52 143.082 165.174 143.355 164.758C143.642 164.328 143.954 163.807 144.293 163.195C144.592 162.661 144.892 162.16 145.191 161.691C145.504 161.21 145.855 160.754 146.246 160.324C146.389 160.168 146.617 159.901 146.93 159.523C147.242 159.133 147.6 158.684 148.004 158.176C148.421 157.655 148.857 157.108 149.312 156.535C149.768 155.962 150.198 155.422 150.602 154.914C151.005 154.393 151.363 153.938 151.676 153.547C151.988 153.143 152.21 152.857 152.34 152.688C152.483 152.518 152.594 152.388 152.672 152.297C152.75 152.193 152.848 152.076 152.965 151.945C153.108 151.737 153.342 151.418 153.668 150.988C153.993 150.559 154.332 150.103 154.684 149.621C155.048 149.139 155.393 148.684 155.719 148.254C156.057 147.811 156.305 147.479 156.461 147.258C156.643 146.984 156.988 146.848 157.496 146.848C157.77 146.848 158.062 146.932 158.375 147.102C158.688 147.258 158.974 147.453 159.234 147.688C159.508 147.922 159.729 148.169 159.898 148.43C160.081 148.69 160.172 148.918 160.172 149.113L160.191 149.016ZM177.789 162.883C177.789 162.766 177.763 162.629 177.711 162.473C177.672 162.316 177.613 162.173 177.535 162.043C177.47 161.9 177.392 161.783 177.301 161.691C177.21 161.587 177.125 161.535 177.047 161.535C176.188 161.535 175.4 161.77 174.684 162.238C173.98 162.694 173.245 163.319 172.477 164.113C172.047 164.543 171.585 165.122 171.09 165.852C170.608 166.581 170.159 167.355 169.742 168.176C169.326 168.996 168.98 169.816 168.707 170.637C168.434 171.457 168.297 172.18 168.297 172.805C168.297 172.961 168.303 173.117 168.316 173.273C168.342 173.417 168.382 173.547 168.434 173.664C168.499 173.781 168.583 173.879 168.688 173.957C168.792 174.035 168.928 174.074 169.098 174.074C169.592 174.074 170.152 173.918 170.777 173.605C171.402 173.28 172.027 172.863 172.652 172.355C173.29 171.835 173.902 171.242 174.488 170.578C175.087 169.901 175.589 169.211 175.992 168.508C176.487 167.648 176.91 166.75 177.262 165.812C177.613 164.875 177.789 163.898 177.789 162.883ZM195.543 164.895C195.543 165.051 195.51 165.24 195.445 165.461C195.393 165.669 195.322 165.884 195.23 166.105C195.139 166.314 195.035 166.522 194.918 166.73C194.814 166.926 194.71 167.095 194.605 167.238C194.54 167.329 194.436 167.46 194.293 167.629C194.15 167.785 193.987 167.967 193.805 168.176C193.622 168.371 193.414 168.586 193.18 168.82C192.958 169.055 192.73 169.289 192.496 169.523C191.741 170.227 190.973 170.923 190.191 171.613C189.423 172.29 188.616 172.896 187.77 173.43C186.923 173.951 186.038 174.374 185.113 174.699C184.189 175.025 183.206 175.188 182.164 175.188C181.721 175.188 181.272 175.09 180.816 174.895C180.361 174.699 179.938 174.432 179.547 174.094C179.156 173.755 178.811 173.352 178.512 172.883C178.225 172.401 178.023 171.887 177.906 171.34C177.672 171.73 177.366 172.154 176.988 172.609C176.611 173.052 176.194 173.495 175.738 173.938C175.296 174.38 174.833 174.803 174.352 175.207C173.87 175.598 173.421 175.936 173.004 176.223C172.717 176.418 172.366 176.62 171.949 176.828C171.546 177.036 171.116 177.232 170.66 177.414C170.204 177.583 169.742 177.727 169.273 177.844C168.818 177.948 168.395 178 168.004 178C167.379 178 166.832 177.824 166.363 177.473C165.895 177.108 165.504 176.665 165.191 176.145C164.892 175.624 164.664 175.07 164.508 174.484C164.365 173.898 164.293 173.371 164.293 172.902C164.293 172.043 164.417 171.171 164.664 170.285C164.924 169.387 165.25 168.514 165.641 167.668C166.044 166.822 166.487 166.014 166.969 165.246C167.464 164.478 167.945 163.794 168.414 163.195C168.909 162.57 169.501 161.952 170.191 161.34C170.882 160.715 171.604 160.161 172.359 159.68C173.115 159.185 173.857 158.788 174.586 158.488C175.328 158.189 175.986 158.039 176.559 158.039C176.871 158.039 177.19 158.052 177.516 158.078C177.854 158.091 178.186 158.117 178.512 158.156C178.837 158.195 179.15 158.254 179.449 158.332C179.749 158.41 180.016 158.508 180.25 158.625C180.406 158.729 180.576 158.918 180.758 159.191C180.953 159.452 181.129 159.738 181.285 160.051C181.454 160.35 181.598 160.65 181.715 160.949C181.832 161.249 181.891 161.483 181.891 161.652C181.891 162.017 181.832 162.453 181.715 162.961C181.611 163.456 181.487 163.977 181.344 164.523C181.214 165.07 181.09 165.63 180.973 166.203C180.855 166.776 180.797 167.323 180.797 167.844C180.797 168.208 180.849 168.579 180.953 168.957C181.057 169.335 181.207 169.68 181.402 169.992C181.598 170.292 181.832 170.539 182.105 170.734C182.379 170.93 182.685 171.027 183.023 171.027C183.792 171.027 184.553 170.884 185.309 170.598C186.064 170.311 186.819 169.921 187.574 169.426C188.329 168.918 189.085 168.326 189.84 167.648C190.595 166.958 191.357 166.216 192.125 165.422C192.151 165.422 192.255 165.324 192.438 165.129C192.62 164.934 192.835 164.719 193.082 164.484C193.342 164.25 193.609 164.035 193.883 163.84C194.169 163.645 194.417 163.547 194.625 163.547C195.003 163.547 195.25 163.658 195.367 163.879C195.484 164.1 195.543 164.439 195.543 164.895ZM192.691 172.141C192.691 171.542 192.724 170.943 192.789 170.344C192.867 169.732 192.958 169.133 193.062 168.547C193.18 167.948 193.303 167.368 193.434 166.809C193.564 166.249 193.681 165.715 193.785 165.207C193.928 164.53 194.059 163.924 194.176 163.391C194.293 162.857 194.365 162.362 194.391 161.906C194.195 161.945 193.974 161.984 193.727 162.023C193.492 162.049 193.251 162.082 193.004 162.121C192.757 162.147 192.516 162.167 192.281 162.18C192.047 162.193 191.852 162.199 191.695 162.199C191.292 162.199 190.94 162.173 190.641 162.121C190.354 162.056 190.113 161.945 189.918 161.789C189.723 161.62 189.579 161.392 189.488 161.105C189.397 160.806 189.352 160.428 189.352 159.973C189.352 159.686 189.417 159.445 189.547 159.25C189.69 159.055 189.872 158.898 190.094 158.781C190.328 158.664 190.582 158.586 190.855 158.547C191.142 158.495 191.422 158.469 191.695 158.469C191.799 158.469 192.001 158.456 192.301 158.43C192.6 158.391 192.919 158.352 193.258 158.312C193.596 158.273 193.928 158.234 194.254 158.195C194.579 158.156 194.82 158.13 194.977 158.117C195.081 158.117 195.178 158.039 195.27 157.883C195.374 157.727 195.465 157.544 195.543 157.336C195.634 157.115 195.712 156.893 195.777 156.672C195.842 156.438 195.888 156.242 195.914 156.086C195.979 155.734 196.07 155.305 196.188 154.797C196.318 154.289 196.454 153.768 196.598 153.234C196.754 152.701 196.91 152.193 197.066 151.711C197.236 151.216 197.398 150.826 197.555 150.539C197.763 150.135 197.991 149.829 198.238 149.621C198.486 149.413 198.857 149.309 199.352 149.309C200.042 149.309 200.543 149.471 200.855 149.797C201.181 150.122 201.344 150.624 201.344 151.301C201.344 151.613 201.272 152.017 201.129 152.512C200.999 153.007 200.849 153.54 200.68 154.113C200.51 154.673 200.348 155.246 200.191 155.832C200.048 156.405 199.97 156.919 199.957 157.375C200.217 157.375 200.595 157.349 201.09 157.297C201.585 157.245 202.105 157.186 202.652 157.121C203.199 157.043 203.72 156.965 204.215 156.887C204.723 156.809 205.107 156.743 205.367 156.691C205.914 156.574 206.331 156.49 206.617 156.438C206.917 156.372 207.184 156.314 207.418 156.262C207.665 156.21 207.926 156.151 208.199 156.086C208.486 156.008 208.883 155.897 209.391 155.754C209.586 155.91 209.742 156.034 209.859 156.125C209.977 156.216 210.061 156.294 210.113 156.359C210.178 156.411 210.217 156.464 210.23 156.516C210.257 156.568 210.27 156.626 210.27 156.691C210.27 157.199 210.035 157.668 209.566 158.098C209.098 158.514 208.505 158.885 207.789 159.211C207.073 159.536 206.292 159.816 205.445 160.051C204.612 160.272 203.824 160.448 203.082 160.578C202.535 160.669 202.04 160.747 201.598 160.812C201.168 160.878 200.79 160.943 200.465 161.008C200.139 161.06 199.872 161.125 199.664 161.203C199.456 161.268 199.299 161.353 199.195 161.457C199.026 162.043 198.831 162.746 198.609 163.566C198.401 164.374 198.199 165.227 198.004 166.125C197.809 167.023 197.646 167.935 197.516 168.859C197.385 169.771 197.32 170.624 197.32 171.418C197.32 172.316 197.496 172.987 197.848 173.43C198.199 173.872 198.694 174.094 199.332 174.094C199.918 174.094 200.491 174.055 201.051 173.977C201.624 173.885 202.216 173.729 202.828 173.508C203.453 173.273 204.111 172.961 204.801 172.57C205.504 172.18 206.285 171.678 207.145 171.066C207.379 170.884 207.62 170.682 207.867 170.461C208.128 170.24 208.388 170.031 208.648 169.836C208.909 169.628 209.176 169.458 209.449 169.328C209.723 169.185 210.003 169.113 210.289 169.113C210.549 169.113 210.751 169.178 210.895 169.309C211.051 169.426 211.129 169.615 211.129 169.875C211.129 170.07 211.064 170.311 210.934 170.598C210.803 170.871 210.621 171.164 210.387 171.477C210.152 171.789 209.872 172.115 209.547 172.453C209.234 172.779 208.883 173.091 208.492 173.391C207.737 173.99 206.943 174.562 206.109 175.109C205.289 175.643 204.449 176.112 203.59 176.516C202.743 176.919 201.891 177.238 201.031 177.473C200.172 177.707 199.319 177.824 198.473 177.824C197.431 177.824 196.546 177.668 195.816 177.355C195.087 177.03 194.488 176.6 194.02 176.066C193.564 175.533 193.225 174.927 193.004 174.25C192.796 173.56 192.691 172.857 192.691 172.141ZM218.551 160.91C218.551 160.624 218.518 160.35 218.453 160.09C218.401 159.829 218.31 159.667 218.18 159.602C217.737 159.602 217.262 159.79 216.754 160.168C216.259 160.546 215.784 161.086 215.328 161.789C214.872 162.479 214.462 163.319 214.098 164.309C213.746 165.285 213.486 166.372 213.316 167.57C213.928 167.115 214.54 166.639 215.152 166.145C215.777 165.637 216.337 165.109 216.832 164.562C217.34 164.016 217.75 163.443 218.062 162.844C218.388 162.232 218.551 161.587 218.551 160.91ZM233.785 164.504C233.785 164.738 233.609 165.168 233.258 165.793C232.581 166.77 231.826 167.74 230.992 168.703C230.172 169.654 229.293 170.559 228.355 171.418C227.418 172.277 226.441 173.078 225.426 173.82C224.41 174.549 223.382 175.181 222.34 175.715C221.298 176.249 220.257 176.672 219.215 176.984C218.186 177.284 217.177 177.434 216.188 177.434C213.961 177.434 212.223 176.809 210.973 175.559C209.736 174.296 209.117 172.395 209.117 169.855C209.117 168.84 209.189 167.844 209.332 166.867C209.475 165.878 209.71 164.908 210.035 163.957C210.374 162.993 210.81 162.049 211.344 161.125C211.878 160.201 212.535 159.302 213.316 158.43C213.603 158.104 213.935 157.792 214.312 157.492C214.703 157.193 215.113 156.926 215.543 156.691C215.986 156.457 216.441 156.268 216.91 156.125C217.392 155.982 217.867 155.91 218.336 155.91C219.026 155.91 219.618 156.04 220.113 156.301C220.621 156.561 221.038 156.913 221.363 157.355C221.689 157.785 221.93 158.286 222.086 158.859C222.242 159.419 222.32 160.012 222.32 160.637C222.32 161.796 221.891 163 221.031 164.25C220.172 165.487 218.98 166.757 217.457 168.059C216.962 168.475 216.389 168.931 215.738 169.426C215.087 169.908 214.358 170.454 213.551 171.066C213.577 171.392 213.668 171.698 213.824 171.984C213.993 172.271 214.215 172.525 214.488 172.746C214.775 172.954 215.113 173.124 215.504 173.254C215.895 173.371 216.337 173.43 216.832 173.43C217.47 173.43 218.147 173.352 218.863 173.195C219.579 173.026 220.289 172.805 220.992 172.531C221.695 172.258 222.379 171.945 223.043 171.594C223.707 171.229 224.312 170.852 224.859 170.461C225.823 169.771 226.747 169.029 227.633 168.234C228.531 167.427 229.397 166.607 230.23 165.773L231.266 164.738C231.982 164.1 232.594 163.781 233.102 163.781C233.362 163.781 233.538 163.872 233.629 164.055C233.733 164.224 233.785 164.374 233.785 164.504ZM242.301 173.43C242.301 174.107 242.171 174.777 241.91 175.441C241.663 176.092 241.331 176.711 240.914 177.297C240.497 177.883 240.016 178.423 239.469 178.918C238.922 179.413 238.355 179.836 237.77 180.188C237.184 180.539 236.598 180.812 236.012 181.008C235.426 181.216 234.879 181.32 234.371 181.32C233.577 181.32 232.997 181.125 232.633 180.734C232.268 180.357 232.086 179.842 232.086 179.191C232.086 178.879 232.132 178.579 232.223 178.293C232.327 178.02 232.47 177.779 232.652 177.57C232.835 177.349 233.056 177.18 233.316 177.062C233.59 176.932 233.896 176.867 234.234 176.867H234.586C234.846 176.867 235.139 176.828 235.465 176.75C235.79 176.672 236.168 176.457 236.598 176.105C236.975 175.793 237.249 175.422 237.418 174.992C237.6 174.549 237.691 174.165 237.691 173.84C237.691 173.553 237.62 173.286 237.477 173.039C237.333 172.779 237.145 172.525 236.91 172.277C236.676 172.03 236.402 171.789 236.09 171.555C235.79 171.307 235.471 171.06 235.133 170.812C234.69 170.474 234.241 170.122 233.785 169.758C233.342 169.38 232.939 168.983 232.574 168.566C232.21 168.137 231.917 167.688 231.695 167.219C231.474 166.737 231.363 166.223 231.363 165.676C231.363 165.129 231.461 164.556 231.656 163.957C231.852 163.358 232.112 162.766 232.438 162.18C232.776 161.594 233.16 161.04 233.59 160.52C234.02 159.999 234.462 159.536 234.918 159.133C235.387 158.729 235.855 158.41 236.324 158.176C236.793 157.941 237.229 157.824 237.633 157.824C238.297 157.824 238.798 157.987 239.137 158.312C239.488 158.638 239.664 159.159 239.664 159.875C239.664 160.214 239.573 160.565 239.391 160.93C239.221 161.281 239 161.633 238.727 161.984C238.466 162.323 238.167 162.655 237.828 162.98C237.503 163.306 237.184 163.605 236.871 163.879C236.598 164.126 236.337 164.328 236.09 164.484C235.855 164.641 235.634 164.81 235.426 164.992C235.556 165.227 235.725 165.467 235.934 165.715C236.142 165.949 236.37 166.184 236.617 166.418C236.865 166.639 237.112 166.854 237.359 167.062C237.62 167.271 237.861 167.466 238.082 167.648C238.564 168.039 239.052 168.449 239.547 168.879C240.042 169.309 240.491 169.764 240.895 170.246C241.311 170.715 241.65 171.216 241.91 171.75C242.171 172.271 242.301 172.831 242.301 173.43Z" fill="#E94158"/>
<defs>
<clipPath id="clip0_17_184">
<rect width="119.233" height="128" fill="white" transform="translate(62)"/>
</clipPath>
</defs>
</svg>
